<svg width="25" height="24" viewBox="0 0 25 24" fill="none" xmlns="http://www.w3.org/2000/svg">
<g id="Iconly/Bulk/Send">
<g id="Send">
<path id="Fill 1" d="M21.9274 2.5783C21.4274 2.0673 20.6874 1.8783 19.9974 2.0783L3.90742 6.7273C3.17942 6.9293 2.66342 7.5063 2.52442 8.2383C2.38242 8.9843 2.87842 9.9323 3.52642 10.3283L8.55742 13.4003C9.07342 13.7163 9.73942 13.6373 10.1664 13.2093L15.9274 7.4483C16.2174 7.1473 16.6974 7.1473 16.9874 7.4483C17.2774 7.7373 17.2774 8.2083 16.9874 8.5083L11.2164 14.2693C10.7884 14.6973 10.7084 15.3613 11.0234 15.8783L14.0974 20.9283C14.4574 21.5273 15.0774 21.8683 15.7574 21.8683C15.8374 21.8683 15.9274 21.8683 16.0074 21.8573C16.7874 21.7583 17.4074 21.2273 17.6374 20.4773L22.4074 4.5083C22.6174 3.8283 22.4274 3.0883 21.9274 2.5783Z" fill="white"/>
<path id="Combined Shape" opacity="0.4" fill-rule="evenodd" clip-rule="evenodd" d="M3.51052 16.8078C3.31852 16.8078 3.12652 16.7348 2.98052 16.5878C2.68752 16.2948 2.68752 15.8208 2.98052 15.5278L4.34552 14.1618C4.63852 13.8698 5.11352 13.8698 5.40652 14.1618C5.69852 14.4548 5.69852 14.9298 5.40652 15.2228L4.04052 16.5878C3.89452 16.7348 3.70252 16.8078 3.51052 16.8078ZM7.27172 18.0002C7.07972 18.0002 6.88772 17.9272 6.74172 17.7802C6.44872 17.4872 6.44872 17.0132 6.74172 16.7202L8.10672 15.3542C8.39972 15.0622 8.87472 15.0622 9.16772 15.3542C9.45972 15.6472 9.45972 16.1222 9.16772 16.4152L7.80172 17.7802C7.65572 17.9272 7.46372 18.0002 7.27172 18.0002ZM7.52542 21.5682C7.67142 21.7152 7.86342 21.7882 8.05542 21.7882C8.24742 21.7882 8.43942 21.7152 8.58542 21.5682L9.95142 20.2032C10.2434 19.9102 10.2434 19.4352 9.95142 19.1422C9.65842 18.8502 9.18342 18.8502 8.89042 19.1422L7.52542 20.5082C7.23242 20.8012 7.23242 21.2752 7.52542 21.5682Z" fill="white"/>
</g>
</g>
</svg>
