<svg width="24" height="28" viewBox="0 0 24 28" fill="none" xmlns="http://www.w3.org/2000/svg">
<path id="Vector" d="M9.12449 24.1191C9.83025 23.971 14.1307 23.971 14.8365 24.1191C15.4398 24.2573 16.0923 24.5802 16.0923 25.2852C16.0572 25.9563 15.6601 26.5514 15.1115 26.9293C14.4001 27.4792 13.5653 27.8274 12.6926 27.9529C12.2099 28.015 11.7357 28.0164 11.2698 27.9529C10.3957 27.8274 9.56085 27.4792 8.85089 26.9278C8.30087 26.5514 7.90379 25.9563 7.86872 25.2852C7.86872 24.5802 8.52116 24.2573 9.12449 24.1191ZM12.0638 0C15.0005 0 18.0004 1.38183 19.7823 3.67453C20.9384 5.15083 21.4688 6.62572 21.4688 8.91842V9.51486C21.4688 11.2732 21.9374 12.3095 22.9687 13.5038C23.7502 14.3837 24 15.5131 24 16.7384C24 17.9623 23.5945 19.1242 22.7821 20.0675C21.7186 21.1983 20.2187 21.9203 18.6879 22.0458C16.4696 22.2333 14.2499 22.3912 12.0007 22.3912C9.75013 22.3912 7.53183 22.2968 5.31353 22.0458C3.78135 21.9203 2.28144 21.1983 1.21929 20.0675C0.406899 19.1242 0 17.9623 0 16.7384C0 15.5131 0.251155 14.3837 1.03128 13.5038C2.09483 12.3095 2.53259 11.2732 2.53259 9.51486V8.91842C2.53259 6.56368 3.1247 5.02393 4.34399 3.51661C6.1568 1.31838 9.06261 0 11.9376 0H12.0638Z" fill="white"/>
</svg>
