<svg width="25" height="26" viewBox="0 0 25 26" fill="none" xmlns="http://www.w3.org/2000/svg">
<g id="Arrow - Down Square">
<path id="Vector" d="M7.98969 23.4166C4.45844 23.4166 2.08344 20.9374 2.08344 17.2603V8.7499C2.08344 5.0624 4.45844 2.58323 7.98969 2.58323H17.0209C20.5512 2.58323 22.9168 5.0624 22.9168 8.7499V17.2603C22.9168 20.9374 20.5512 23.4166 17.0209 23.4166H7.98969ZM12.5001 18.0311C12.9376 18.0311 13.2814 17.6874 13.2814 17.2499L13.2814 10.6353L15.8543 13.2186C16.0001 13.3645 16.2084 13.4478 16.4064 13.4478C16.6032 13.4478 16.8022 13.3645 16.9584 13.2186C17.2605 12.9166 17.2605 12.4166 16.9584 12.1145L13.0522 8.1874C12.7605 7.89573 12.2397 7.89573 11.948 8.1874L8.04178 12.1145C7.73969 12.4166 7.73969 12.9166 8.04178 13.2186C8.35428 13.5207 8.84386 13.5207 9.15636 13.2186L11.7189 10.6353L11.7189 17.2499C11.7189 17.6874 12.073 18.0311 12.5001 18.0311Z" fill="#D20000"/>
</g>
</svg>
