<svg width="25" height="26" viewBox="0 0 25 26" fill="none" xmlns="http://www.w3.org/2000/svg">
<g id="Arrow - Down Square">
<path id="Vector" d="M17.0103 2.58344C20.5416 2.58344 22.9166 5.0626 22.9166 8.73969V17.2501C22.9166 20.9376 20.5416 23.4168 17.0103 23.4168H7.97905C4.44885 23.4168 2.08322 20.9376 2.08322 17.2501V8.73969C2.08322 5.0626 4.44885 2.58344 7.97905 2.58344H17.0103ZM12.4999 7.96885C12.0624 7.96885 11.7186 8.3126 11.7186 8.7501V15.3647L9.14572 12.7814C8.99989 12.6355 8.79156 12.5522 8.59364 12.5522C8.39676 12.5522 8.1978 12.6355 8.04155 12.7814C7.73947 13.0834 7.73947 13.5834 8.04155 13.8855L11.9478 17.8126C12.2395 18.1043 12.7603 18.1043 13.052 17.8126L16.9582 13.8855C17.2603 13.5834 17.2603 13.0834 16.9582 12.7814C16.6457 12.4793 16.1561 12.4793 15.8436 12.7814L13.2811 15.3647V8.7501C13.2811 8.3126 12.927 7.96885 12.4999 7.96885Z" fill="#00D293"/>
</g>
</svg>
