<svg width="18" height="18" viewBox="0 0 18 18" fill="none" xmlns="http://www.w3.org/2000/svg">
<g id="basil:copy-outline">
<path id="Vector" d="M6.75 2.4375C5.60625 2.4375 4.50935 2.89185 3.7006 3.7006C2.89185 4.50935 2.4375 5.60625 2.4375 6.75V12.0803C2.4375 12.2294 2.49676 12.3725 2.60225 12.478C2.70774 12.5835 2.85082 12.6428 3 12.6428C3.14918 12.6428 3.29226 12.5835 3.39775 12.478C3.50324 12.3725 3.5625 12.2294 3.5625 12.0803V6.75C3.5625 5.90462 3.89832 5.09387 4.4961 4.4961C5.09387 3.89833 5.90462 3.5625 6.75 3.5625H12.0098C12.1589 3.5625 12.302 3.50324 12.4075 3.39775C12.513 3.29226 12.5723 3.14918 12.5723 3C12.5723 2.85082 12.513 2.70774 12.4075 2.60225C12.302 2.49676 12.1589 2.4375 12.0098 2.4375H6.75Z" fill="#350D73"/>
<path id="Vector_2" fill-rule="evenodd" clip-rule="evenodd" d="M13.8023 5.09475C11.3583 4.82303 8.89172 4.82303 6.44775 5.09475C6.1096 5.13244 5.79413 5.28337 5.55259 5.523C5.31105 5.76264 5.15763 6.07691 5.11725 6.41475C4.82897 8.8796 4.82897 11.3696 5.11725 13.8345C5.1575 14.1724 5.31087 14.4867 5.55244 14.7264C5.79401 14.9661 6.10955 15.1169 6.44775 15.1545C8.8785 15.4267 11.3715 15.4267 13.8023 15.1545C14.1405 15.1169 14.456 14.9661 14.6976 14.7264C14.9391 14.4867 15.0925 14.1724 15.1328 13.8345C15.4211 11.3696 15.4211 8.8796 15.1328 6.41475C15.0924 6.07691 14.939 5.76264 14.6974 5.523C14.4559 5.28337 14.1404 5.13244 13.8023 5.09475ZM6.573 6.213C8.9205 5.9505 11.3295 5.9505 13.677 6.213C13.7625 6.22246 13.8423 6.26048 13.9036 6.3209C13.9648 6.38132 14.0039 6.46062 14.0145 6.546C14.2935 8.92384 14.2935 11.3262 14.0145 13.704C14.0039 13.7894 13.9648 13.8687 13.9036 13.9291C13.8423 13.9895 13.7625 14.0275 13.677 14.037C11.3295 14.2995 8.9205 14.2995 6.573 14.037C6.48754 14.0274 6.40779 13.9894 6.34658 13.929C6.28536 13.8686 6.24624 13.7893 6.2355 13.704C5.95651 11.3262 5.95651 8.92384 6.2355 6.546C6.24624 6.46068 6.28536 6.38144 6.34658 6.32105C6.40779 6.26065 6.48754 6.22259 6.573 6.213Z" fill="#350D73"/>
</g>
</svg>
