<svg width="24" height="24" viewBox="0 0 24 24" fill="none" xmlns="http://www.w3.org/2000/svg">
<g id="Bookmark">
<path id="Vector" d="M14.9281 2.675C17.4688 2.675 19.5219 3.67813 19.55 6.22813V20.4594C19.55 20.6188 19.5125 20.7781 19.4375 20.9188C19.3156 21.1438 19.1094 21.3125 18.8563 21.3875C18.6125 21.4625 18.3406 21.425 18.1156 21.2938L12.0406 18.2563L5.95625 21.2938C5.81657 21.3678 5.65625 21.4156 5.49688 21.4156C4.97188 21.4156 4.55 20.9844 4.55 20.4594V6.22813C4.55 3.67813 6.6125 2.675 9.14375 2.675H14.9281ZM15.5656 8.3375H8.50625C8.10313 8.3375 7.775 8.66563 7.775 9.07813C7.775 9.48969 8.10313 9.81875 8.50625 9.81875H15.5656C15.9688 9.81875 16.2969 9.48969 16.2969 9.07813C16.2969 8.66563 15.9688 8.3375 15.5656 8.3375Z" fill="#350D73"/>
</g>
</svg>
