<svg width="24" height="23" viewBox="0 0 24 23" fill="none" xmlns="http://www.w3.org/2000/svg">
<g id="Calling">
<g id="Iconly/Bold/Calling">
<g id="Calling_2">
<path id="Fill-1" d="M14.4249 5.33143C13.9786 5.24899 13.5687 5.53379 13.4837 5.96943C13.3988 6.40507 13.6845 6.8304 14.1186 6.91566C15.4257 7.17048 16.435 8.18229 16.6909 9.49389C16.7637 9.87144 17.0961 10.1469 17.4789 10.1469C17.5302 10.1469 17.5816 10.1422 17.6338 10.1328C18.068 10.0457 18.3537 9.6213 18.2687 9.18472C17.8869 7.22576 16.379 5.71273 14.4249 5.33143Z" fill="#350D73"/>
<path id="Fill-3" d="M14.3665 2.06705C14.1574 2.03707 13.9473 2.0989 13.7802 2.23194C13.6084 2.36684 13.501 2.56171 13.4777 2.78C13.4282 3.22126 13.7466 3.62036 14.1873 3.67001C17.2263 4.00915 19.5885 6.37659 19.9302 9.42512C19.9759 9.83359 20.3186 10.1418 20.7275 10.1418C20.7583 10.1418 20.7882 10.1399 20.819 10.1362C21.0328 10.1128 21.2233 10.0069 21.3577 9.83828C21.4913 9.66964 21.5519 9.45979 21.5277 9.24525C21.1019 5.44161 18.1581 2.48957 14.3665 2.06705Z" fill="#350D73"/>
</g>
<path id="Stroke-1" fill-rule="evenodd" clip-rule="evenodd" d="M11.25 12.3462C14.9897 16.085 15.8381 11.7597 18.2192 14.1391C20.5148 16.4341 21.8342 16.8939 18.9257 19.8015C18.5614 20.0943 16.2467 23.6167 8.11202 15.4843C-0.0236864 7.35087 3.49669 5.03378 3.78955 4.66957C6.70507 1.75385 7.15695 3.08091 9.45253 5.37586C11.8337 7.75633 7.51019 8.6075 11.25 12.3462Z" fill="#350D73"/>
</g>
</g>
</svg>
