<svg width="25" height="24" viewBox="0 0 25 24" fill="none" xmlns="http://www.w3.org/2000/svg">
<g id="Iconly/Bulk/Category">
<g id="Category">
<path id="Fill 1" opacity="0.4" d="M16.5755 2H19.9615C21.3637 2 22.5 3.14585 22.5 4.55996V7.97452C22.5 9.38864 21.3637 10.5345 19.9615 10.5345H16.5755C15.1732 10.5345 14.037 9.38864 14.037 7.97452V4.55996C14.037 3.14585 15.1732 2 16.5755 2Z" fill="white"/>
<path id="Combined Shape" fill-rule="evenodd" clip-rule="evenodd" d="M5.03852 2H8.42449C9.82676 2 10.963 3.14585 10.963 4.55996V7.97452C10.963 9.38864 9.82676 10.5345 8.42449 10.5345H5.03852C3.63626 10.5345 2.5 9.38864 2.5 7.97452V4.55996C2.5 3.14585 3.63626 2 5.03852 2ZM5.03852 13.4655H8.42449C9.82676 13.4655 10.963 14.6114 10.963 16.0255V19.44C10.963 20.8532 9.82676 22 8.42449 22H5.03852C3.63626 22 2.5 20.8532 2.5 19.44V16.0255C2.5 14.6114 3.63626 13.4655 5.03852 13.4655ZM19.9615 13.4655H16.5755C15.1732 13.4655 14.037 14.6114 14.037 16.0255V19.44C14.037 20.8532 15.1732 22 16.5755 22H19.9615C21.3637 22 22.5 20.8532 22.5 19.44V16.0255C22.5 14.6114 21.3637 13.4655 19.9615 13.4655Z" fill="white"/>
</g>
</g>
</svg>
