<svg width="5" height="7" viewBox="0 0 5 7" fill="none" xmlns="http://www.w3.org/2000/svg">
<path id="Vector" d="M2.45 3.325C2.21794 3.325 1.99538 3.23281 1.83128 3.06872C1.66719 2.90462 1.575 2.68206 1.575 2.45C1.575 2.21794 1.66719 1.99538 1.83128 1.83128C1.99538 1.66719 2.21794 1.575 2.45 1.575C2.68206 1.575 2.90462 1.66719 3.06872 1.83128C3.23281 1.99538 3.325 2.21794 3.325 2.45C3.325 2.56491 3.30237 2.67869 3.25839 2.78485C3.21442 2.89101 3.14997 2.98747 3.06872 3.06872C2.98747 3.14997 2.89101 3.21442 2.78485 3.25839C2.67869 3.30237 2.56491 3.325 2.45 3.325ZM2.45 0C1.80022 0 1.17705 0.258124 0.717588 0.717588C0.258124 1.17705 0 1.80022 0 2.45C0 4.2875 2.45 7 2.45 7C2.45 7 4.9 4.2875 4.9 2.45C4.9 1.80022 4.64188 1.17705 4.18241 0.717588C3.72295 0.258124 3.09978 0 2.45 0Z" fill="#350D73" fill-opacity="0.8"/>
</svg>
