<svg width="24" height="24" viewBox="0 0 24 24" fill="none" xmlns="http://www.w3.org/2000/svg">
<path d="M16.0644 2.8028C16.0194 3.08404 15.9969 3.36529 15.9969 3.64653C15.9969 6.17774 18.0444 8.22409 20.5643 8.22409C20.8456 8.22409 21.1156 8.19146 21.3968 8.14647V17.224C21.3968 21.0388 19.1468 23.3 15.3219 23.3H7.00939C3.18332 23.3 0.933356 21.0388 0.933356 17.224V8.9002C0.933356 5.07526 3.18332 2.8028 7.00939 2.8028H16.0644ZM16.2905 9.64269C15.9856 9.60894 15.683 9.74394 15.5019 9.99144L12.7806 13.5126L9.66323 11.0602C9.47198 10.9139 9.24698 10.8566 9.02199 10.8802C8.79811 10.9139 8.59562 11.0365 8.45949 11.2165L5.13067 15.5489L5.06204 15.6501C4.8708 16.009 4.9608 16.4702 5.29829 16.7188C5.45579 16.8201 5.62454 16.8876 5.81578 16.8876C6.07565 16.8988 6.32203 16.7627 6.47952 16.5501L9.30323 12.9153L12.5094 15.3239L12.6107 15.3902C12.9707 15.5815 13.4207 15.4926 13.6794 15.154L16.9306 10.9589L16.8856 10.9814C17.0656 10.7339 17.0994 10.4189 16.9756 10.1377C16.853 9.85644 16.5819 9.66519 16.2905 9.64269ZM20.7219 0.799988C22.2182 0.799988 23.4331 2.01497 23.4331 3.5112C23.4331 5.00743 22.2182 6.22241 20.7219 6.22241C19.2257 6.22241 18.0107 5.00743 18.0107 3.5112C18.0107 2.01497 19.2257 0.799988 20.7219 0.799988Z" fill="#350D73"/>
</svg>
